<?xml version="1.0" encoding="UTF-8"?>
<svg id="Layer_1" data-name="Layer 1" xmlns="http://www.w3.org/2000/svg" viewBox="0 0 379 379">
  <defs>
    <style>
      .cls-1 {
        fill: #020306;
      }

      .cls-1, .cls-2, .cls-3 {
        stroke-width: 0px;
      }

      .cls-2 {
        fill: #07a6f0;
      }

      .cls-3 {
        fill: #fdfdfd;
      }
    </style>
  </defs>
  <path class="cls-2" d="M379,196v8c-.6315612793-.1137237549-.9703674316.2731170654-.983001709.7909393311-.0825500488,3.3840484619.112121582,6.74168396-.9175109863,10.1000671387-.5366821289,1.7505950928-.3218994141,3.7003479004-.9855041504,5.5863494873-.6043395996,1.7174530029.2719116211,3.8664703369-1.1139831543,5.5366516113.1324462891,5.3005371094-2.8622436523,9.9851989746-3,15.2325286865-3.6844482422,9.9527282715-6.8110351562,20.1302642822-11.4878234863,29.6868743896-2.6470336914,5.408996582-5.7042236328,10.6163024902-8.4530944824,15.9778442383-.3017272949.588470459-.6650085449,1.0563049316-1.0299377441,1.565612793-3.3939819336,4.7365722656-6.5281677246,9.6489868164-9.921295166,14.3939819336-3.901763916,5.4563903809-7.904510498,10.8441467285-12.397857666,15.7586669922-6.3892211914,6.988067627-13.3834533691,13.3740234375-20.878326416,19.263458252-4.3903198242,3.4498901367-9.1074523926,6.455078125-13.361328125,10.0748291016-.2895507812.2463989258-.9710998535.0321960449-1.4703369141.0321960449-.758026123.1506347656-1.9146728516-.4960021973-2,1-.6920776367-.0254211426-1.0254211426.3079223633-1,1,.0372314453.9994506836-.8141784668,1.5008239746-1.4167480469,1.8492126465-4.8934631348,2.8290100098-10.1571044922,4.9365844727-14.9929199219,7.9291381836-2.9412536621,1.820098877-6.3768005371,2.8414916992-9.5903320312,4.2216491699.1131591797-.6094665527-.2586975098-.9247436523-.7583007812-.9805603027-.6711120605-.075012207-1.3135681152.0421142578-1.2416992188.9805603027-1.6905517578.1317443848-3.6767578125-.6680908203-4.7862548828,1.3369140625-.2890930176.5224304199.2998046875.6927185059.7862548828.6630859375-1.8981933594,2.0152893066-4.4804382324,2.4345397949-7,3,.1136932373-.6289978027-.3016967773-1.0412597656-.781829834-.9685058594-1.8701019287.2833557129-4.2167510986-1.0375671387-5.5419921875.9069824219-1.3772583008,2.0208740234-3.5419006348.8098449707-5.2924346924,1.8549499512-2.4038696289,1.4350585938-5.4652404785,2.4112854004-8.5066833496,2.1731567383-2.7932128906-.2186279297-5.3637237549.4594726562-7.8295898438,1.5675354004-.6195220947.2783813477-1.1590576172.4544067383-1.8006134033.4671630859-2.5544891357.0507507324-5.0274810791.1153869629-7.5953979492.8476257324-2.4558105469.7003173828-5.2900695801.3649291992-7.9174346924.0930175781-2.8196563721-.291809082-5.2040405273,1.4393005371-8.065322876,1.1471557617-3.6136474609-.3690185547-7.310836792-.3166809082-10.9411621094-.0406188965-7.0605163574.5369262695-13.953994751-1.6831359863-21.0006866455-1.0619506836-.4628448486.040802002-.9838256836-.0132141113-1.4081726074-.1900939941-3.112411499-1.2973327637-6.3201599121-1.9802856445-9.7132263184-1.8235168457-.9178009033.042388916-2.0619659424.4736022949-2.7153320312-.603515625-.9520263672-1.5695495605-2.4520874023-1.376373291-3.9235992432-1.3717651367-2.6554870605.0083312988-5.3110198975.0023803711-7.9665222168.0023803711-.9841766357-.3807983398-2.5311737061.9268493652-3-1-2.757522583-2.9193725586-6.2980651855-3.2286682129-10-3-1.2707748413-.2456054688-2.5699920654.3545837402-3.8589630127-.3257751465-3.1381454468-1.6563720703-6.601348877-2.5803527832-9.8156890869-3.9953308105-6.0509338379-2.6636352539-12.160369873-5.4534912109-17.7329940796-8.8969116211-6.1315383911-3.7888183594-12.0584106445-8.0621948242-17.9408874512-12.3240661621-8.6755828857-6.2854309082-16.2520217896-13.7268981934-24.2984695435-20.6689147949-3.6667861938-3.163482666-6.4267272949-7.1407775879-9.3452148438-11.0263061523-3.3408088684-4.4478149414-6.7828521729-8.8483886719-10.049785614-13.3591308594-4.7525901794-6.5620422363-8.7971000671-13.5946350098-12.657743454-20.7004699707-2.5626029968-4.7166748047-4.5891838074-9.7318725586-6.7222242355-14.671081543-.8527612686-1.974609375-1.7954216003-3.9478149414-2.4931621552-5.9464416504-2.0844764709-5.9708557129-3.8015794754-12.0709686279-5.6240925789-18.1320495605-1.8867564201-6.2747497559-2.5425868034-12.8394927979-4.4607739449-19.1086120605.7209134102-4.4331665039-1.5081623793-8.6357116699-1.026147604-13.0601501465.0762867928-.7002410889.4006392956-1.7713165283-.973852396-1.7847595215v-30c.6312556267.1137084961.9565774202-.270614624.9848102331-.7909088135.1562319994-2.8791809082.4397851229-5.7345123291.7914813757-8.5962982178.5438849926-4.4256286621,1.5210955143-8.7539215088,2.0891735554-13.1363830566.6712789536-5.178604126,2.4428386688-10.0417480469,3.4396324158-15.1143493652.8499689102-4.3254241943,2.912153244-8.4126434326,4.4380807877-12.6052322388,1.5259304047-4.1925964355,2.7487106323-8.5284729004,4.647110939-12.5450210571,3.0308971405-6.412612915,6.2342166901-12.7834091187,9.9484329224-18.8122253418,1.3310871124-2.1605758667,2.1719779968-4.4589233398,3.3873958588-6.6108779907,3.0392971039-5.3812408447,7.567232132-9.6670455933,10.9343204498-14.8340454102,2.0945892334-3.2142791748,4.7522163391-6.0939483643,7.3731117249-8.9237823486,2.5476264954-2.7507247925,5.143447876-5.4682350159,7.6243171692-8.2727127075,2.4080505371-2.72215271,5.505443573-4.5588569641,8.1182632446-6.9999198914,2.7289886475-2.5495948792,5.3506393433-5.3387985229,8.4730834961-7.3010368347,2.285987854-1.436580658,3.7722473145-3.5732307434,5.8816833496-5.0349655151,3.724395752-2.5808296204,7.4774856567-5.1539535522,11.4141769409-7.3851680756,3.880317688-2.1992683411,7.2389144897-5.5001525879,11.9622879028-6.0444355011,3.1812057495-3.2434825897,7.5303344727-4.2471370697,11.4926376343-5.9926376343-.1131515503.6094665527.2586898804.9247360229.7583007812.9805660248.6711044312.0749988556,1.3135681152-.042098999,1.2416992188-.9805660248.3251647949,0,.6573181152.0413532257.9734344482-.0121364594.2907943726-.0492048264.7650222778-.1475152969.8095321655-.3162317276.1631088257-.6183729172-.2965087891-.7012729645-.7829666138-.671631813,1.8982086182-2.0152997971,4.4804382324-2.4345369339,7-3-.1131515503.6094655991.2586517334.9337825775.7577285767.9840650558,1.7575759888.177072525,2.7567901611-.2607584,7.2422714233-2.9840650558.3918304443-1.5789136887,1.4484100342-2.160712719,3-2,2.1003417969,1.2218132019,3.4543304443,1.2558984756,6.0475921631.4710140228,5.7149200439-1.7296924591,11.4232177734-3.5574703217,17.4967956543-3.4526457787,1.1833496094.0204229355,2.1986541748-.7922196388,3.0871276855-.8744635582,3.0300445557-.2804832458,5.9051361084-1.2827575207,9.0405273438-1.2325179577,13.1170501709.2101786137,26.240737915.1861562729,39.3587188721.0070698261,2.6529541016-.0362176895,5.1763153076.4424183369,7.4668579102,1.317006588,1.2708282471.48524189,2.4165344238.6988887787,3.664276123.7499265671,3.1711120605.1297121048,6.4784088135-.5925855637,9.2307434082,1.8311338425.3866882324.3405127525,1.2720184326.2563414574,1.8945922852.1607627869,1.8324890137-.2813138962,3.4373626709.4003982544,5.0704345703,1.0215129852,1.7913208008.6813154221,3.6006164551,1.2589502335,5.5646820068,1.0045137405,1.0295410156-.1333732605,1.9724578857.0021648407,2.5757141113.994641304.6022796631.9908599854,1.5381622314,1.0924129486,2.5748748779,1.0085468292,1.509765625-.1221313477,2.6607971191.3539037704,3.9664154053,1.3344182968,1.3603057861,1.0216054916,3.4393310547,1.5944709778,4.960647583-.3409194946,1.551574707-.1607093811,2.6081848145.4210605621,3,2-.2152404785,1.6926527023,2.9320373535.5544986725,2.3250427246,2.7558269501-.0776977539.2817440033.5449829102-.4051151276.9049377441-.4771881104.585144043-.1171607971,1.1795349121-.1881561279,1.7700195312-.2786388397,1.2553405762,3.5153007507,4.2061767578,3.0744476318,7,3,.0853271484,1.4959983826,1.241973877.849357605,2,1,2.5782775879.4685783386,4.7392272949,2.0563011169,7.2375183105,2.7168254852,1.8306274414.4840011597,2.9795837402,1.6491680145,3.7624816895,3.2831745148-.041809082.9778575897.8058166504,1.4052124023,1.3890075684,1.8013362885.6548156738.4447650909,1.55078125.4256725311,1.6109924316-.8013362885,1.6719055176.4128990173,4.5755310059,2.3486480713,6,4-.9627380371-.0747909546-1.0589904785.5953483582-.9782104492,1.2638664246.0611877441.5064163208.4188232422.7821540833,1.0185546875.7502937317.9840393066-.0522727966,1.9728393555-.0141601562,2.9596557617-.0141601562,3.5025939941.9429893494,5.5963745117,4.1639480591,8.8951416016,5.5079193115.8715820312.3550834656,1.8895874023,1.2516479492,2.1048583984,2.4920845032-.2825317383.1158790588-.5650939941.231754303-.8476257324.3476295471.5959777832,1.0706863403,1.4293518066,1.9039802551,2.5,2.4999961853l.3476257324-.8476295471c1.3961181641.7074890137,2.8220214844,1.3018608093,3.9938354492,2.4482345581,2.6727905273,2.6147499084,4.9993896484,5.6116294861,8.3652648926,7.4910163879.7461547852.4166374207,1.5899047852,1.0856895447,1.7008666992,2.2721786499.0497436523.5317115784.6456298828,1.2124023438,1.1685791016,1.4690742493,5.6762695312,2.7861099243,7.9965209961,8.8921737671,12.6383972168,12.6864547729,2.3299255371,5.4003753662,6.6510314941,9.4708099365,9.7387390137,14.4040985107,3.6413269043,5.817741394,7.1098937988,11.6985549927,10.4182739258,17.7029953003,4.6303710938,8.403717041,8.1929626465,17.2293014526,11.3240966797,26.2862701416,2.2331237793,6.4594039917,4.2149353027,12.9551467896,5.6732788086,19.6278610229.843963623,3.8614807129,1.475189209,7.7507629395,2.1491699219,11.6342010498.8192749023,4.7204742432,1.9425354004,9.3550567627,1.8488769531,14.1865997314-.0099182129.5127258301.3484802246.9047851562.9806213379.791015625v9c-.6276855469-.1136474609-.9776916504.2733001709-.9817199707.7847290039-.0325927734,4.1433563232-.0325927734,8.2871856689,0,12.4305419922.0040283203.511428833.3540344238.8983764648.9817199707.7847290039ZM140.6773223877,77.0920410156c-3.2711029053.1546859741-5.9156646729,2.0556411743-8.4807891846,3.4972763062-2.4222259521,1.3613357544-5.4756774902,2.0996170044-7.2194900513,4.1561431885-2.0077209473,2.3677825928-4.7601470947,3.2561569214-7.1460647583,4.7081222534-2.9613113403,1.8021392822-5.5001525879,4.1522445679-8.517364502,5.8736038208-1.9459991455,1.110244751-3.2835540771,3.2359542847-5.1064529419,4.6281204224-1.6425476074,1.254447937-2.4286956787,3.1655197144-4.0313873291,4.4512557983-1.8075942993,1.4501113892-3.7775421143,3.0098114014-4.8456192017,4.9738998413-.9011230469,1.6570587158-2.8286590576,2.6136474609-3.1528396606,4.1388320923-.3729782104,1.7548294067-2.5686416626,2.1995697021-2.2803649902,4.0837554932-2.6585617065-.020866394-1.552696228,2.6662216187-2.7146377563,3.8146286011-1.5771331787,1.5587463379-3.0553359985,3.33203125-4.1268386841,5.2625808716-1.8660049438,3.3620071411-3.7440414429,6.7956924438-4.9563064575,10.4203262329-1.2306747437,3.6796569824-3.5743560791,6.7556610107-4.5322036743,10.6448822021-1.7799453735,7.2272644043-5.6522369385,13.917388916-5.5669631958,21.6477203369-2.1204071045,1.7999267578-.1455993652,4.4656677246-1.3456115723,6.4342803955-1.4146881104,2.3207397461-.2897644043,4.8323822021-.6572570801,7.2241210938-.2870330811,1.8681030273.6368026733,3.8634643555-.9186401367,5.649307251-.4753417969.5457458496-.4167556763,2.2967834473.0914077759,2.8143310547,1.305847168,1.3299713135.7148361206,2.799621582.8022079468,4.1982421875.1139755249,1.8246154785-.6387634277,4.0614013672.1690826416,5.4087677002,1.5966644287,2.6630554199-.1183547974,5.84815979,1.8588104248,8.2483215332-.6327056885,2.4962005615.5322036743,4.7994384766,1.1299972534,7.0445861816.6677932739,2.5080413818,1.0828552246,5.095916748,2.1991577148,7.5663299561,2.0852661133,4.614730835,3.5266036987,9.5028381348,5.5700454712,14.1766662598,2.1723937988,4.9688262939,4.3552856445,9.9078979492,7.2802352905,14.4579162598,2.3905563354,3.7186889648,4.0838394165,7.9671630859,7.7308959961,10.7942810059-.1040420532,2.003326416,2.571472168,2.4703369141,2.4714584351,4.4714355469,2.1868591309.36328125,2.167350769,2.8504943848,3.7801055908,3.8948974609,1.4420089722.933807373,2.1952133179,2.9258728027,3.376083374,3.9295654297,1.2689971924,1.0786132812,2.7487945557,2.2893981934,3.8438186646,3.4150085449,4.1805648804,4.2973327637,9.2448196411,7.3501586914,13.9791793823,10.8580322266,4.8828735352,3.6179199219,10.3014984131,6.3451843262,15.7352905273,9.0294189453,1.6146850586.7976074219,3.3173828125,1.4635925293,4.4374237061,3.0824890137.2992095947-.4724731445.4557800293-.6043395996.4559173584-.7362976074.0112609863-10.9903259277-.100692749-21.9821166992.041809082-32.9706115723.1407928467-10.8556213379-.8212890625-21.7496490479.9685821533-32.5571746826,0-51.6212615967.0040740967-103.2425079346-.0237731934-154.8637542725-.0006866455-1.2739486694.412612915-2.6230773926-.2989044189-3.871307373ZM242.3204498291,79.2108917236c-.5555877686.3609848022-.3102416992.9079437256-.3105621338,1.3710861206-.0117950439,16.484992981-.0098876953,32.9699935913-.0098876953,49.4549942017,0,16.6515045166.1536254883,33.3048400879-.0435943604,49.9540100098-.1936645508,16.3480529785-.0008392334,32.6840362549-.7144165039,49.0518341064-.9709625244,22.271484375-.25050354,44.6170654297-.2199707031,66.930847168.0017547607,1.2811889648-.3526763916,2.6200561523.3019561768,4.0263366699.6511688232,0,1.5960845947.275177002,1.8878479004-.044921875,1.8112030029-1.9871826172,4.4092559814-2.3330688477,6.6809082031-3.2381286621,2.0686187744-.8241271973,3.0765075684-2.8281555176,4.9618682861-3.703704834,6.7512664795-3.1352233887,11.9204559326-8.443939209,17.5085601807-13.0887145996,3.8523254395-3.2020568848,7.4177246094-6.8545227051,10.4388122559-11.0556945801,3.8655700684-5.3754577637,8.8147888184-9.9794921875,11.2173156738-16.3654174805.1068115234-.2839202881.5192871094-.4397735596.6802368164-.7183227539,2.2504272461-3.8944244385,4.4696655273-7.8069763184,6.7358703613-11.6921234131.2410583496-.4133300781.640625-.7068481445.5696716309-1.2684173584-.259552002-2.0531463623.9432678223-3.5389404297,1.7647094727-5.2680053711.8404541016-1.7691040039,1.7196044922-3.5908813477,2.3681335449-5.5166931152,1.4334106445-4.2565307617,2.1250305176-8.6982116699,3.6640930176-12.9481048584.9698791504-2.6782836914,1.8254089355-5.6697998047,2.1256713867-8.5986480713.3209838867-3.1308746338-.1411437988-6.3387145996.1318359375-9.4787750244.2776489258-3.1933288574,1.181427002-6.3092498779.9733886719-9.5839538574-.2248840332-3.5400390625-1.4831848145-6.9295654297-1.0849914551-10.5793762207.5813293457-5.3281402588-1.2734985352-10.2739105225-2.798248291-15.2910766602-1.0789489746-3.5502166748-2.4236450195-7.1403198242-2.9587402344-10.7205810547-.6929931641-4.6366577148-4.7032470703-7.8797302246-4.5176696777-12.6660919189-3.7494812012-3.5550079346-3.6875305176-9.3544921875-7.5723266602-12.9171218872-.4847106934-.4445266724-.9902038574-1.8684463501-1.3879089355-2.8551940918-.5566711426-1.3813171387-1.2760620117-2.9183883667-2.670715332-3.9081802368-.7879943848-.5592269897-1.7774658203-1.3174209595-1.9672851562-2.1479949951-.6246948242-2.7334442139-2.4970092773-4.5112915039-4.4481201172-6.1342468262-2.0529785156-1.7076721191-2.9070129395-4.2649917603-4.8766174316-6.0238952637-2.7902526855-2.4917678833-5.4940490723-5.063621521-8.3532714844-7.4941711426-3.3110961914-2.8146972656-6.7499694824-5.4306030273-10.2462768555-7.9722518921-2.1616210938-1.5714111328-4.4937438965-2.8831634521-6.6113586426-4.5682678223-2.1646118164-1.7225265503-5.0280914307-2.3458633423-7.3158416748-4.0616226196-.9438171387-.7078323364-2.3484802246-1.8684387207-3.9030761719-.87940979ZM141.9692230225,28c-1.9038848877,0-3.5984191895-.4456939697-4.8337402344.1169338226-1.426864624.6498641968-2.984664917,1.0657958984-4.3838500977,1.4408569336-2.4695892334.6619968414-4.2568206787,2.558549881-6.7785720825,3.0154933929-3.2309951782.5854530334-6.0129776001,2.32837677-8.9231033325,3.7864761353-3.8568725586,1.9324569702-7.9334259033,3.4180107117-11.6289825439,5.7020721436-2.378288269,1.4699134827-4.977142334,2.6297607422-7.1908340454,4.306552887-2.4026565552,1.8199234009-5.7313232422,2.3425369263-7.3459625244,5.2425842285-.3062744141.550075531-.9421920776.2058753967-1.3233261108.4120979309-3.327507019,1.800403595-5.815536499,4.8560676575-9.3869171143,6.3030014038-.1003952026,2.215057373-2.7802963257,1.8507804871-3.4731063843,3.4732170105-.7634353638,1.7878189087-3.0904693604,1.8204193115-3.9336929321,3.7805023193-.6652526855,1.5463867188-2.4058761597,2.5115814209-4.0623168945,3.2508468628-.4262237549.1902313232-.9159698486.624786377-1.0379333496,1.0453109741-.6378631592,2.1992874146-3.3360214233,2.3902282715-4.1505584717,4.1985702515-.9131622314,2.0273132324-2.8736381531,3.1340026855-3.8716659546,4.9029083252-1.5906867981,2.8193130493-4.3326797485,4.6287918091-5.8095283508,7.5707397461-1.759929657,3.505859375-4.906452179,6.0703811646-6.8281517029,9.6494903564-1.5184631348,2.8280792236-3.301651001,5.6641616821-5.1273269653,8.3902435303-2.1690635681,3.2388305664-4.4042053223,6.4210357666-5.2800216675,10.3124694824-4.4142723083,5.0559539795-4.418548584,12.2498245239-8.4624977112,17.4914321899-.1681060791.217880249-.1436958313.622467041-.1298809052.9365997314.1362571716,3.0982971191-2.5585765839,5.4102630615-2.3580875397,8.5224304199-2.5518760681,3.9519958496-2.6698703766,8.6365661621-3.4975299835,13.010848999-.7913150787,4.1822052002-2.8642044067,8.2007141113-2.1553096771,12.641998291-2.0087852478,1.7302093506-.0923042297,4.3771972656-1.1732215881,5.9814605713-1.4208965302,2.10887146-.7324733734,4.1547393799-.7707118988,6.1869659424-.1347484589,7.1609954834-.0523929596,14.3261108398-.0523929596,21.489654541,0,.9995727539-.2976646423,2.1196136475.0499649048,2.9784851074,1.7932891846,4.4306335449,1.7023563385,9.235824585,2.8257846832,13.8016357422.3346290588,1.3600006104,1.3372688293,2.4718017578,1.198972702,4.0597381592-.1327285767,1.5240020752-.7427082062,3.340423584.92527771,4.5771179199-.0913391113,4.0416107178,1.6538696289,7.6257324219,3.0748386383,11.2223510742,1.2623672485,3.1951751709,1.7129249573,6.5970306396,2.9930782318,9.7540893555,1.2723045349,3.1377105713,2.4280929565,6.3434448242,3.9730758667,9.3453369141,2.9014396667,5.6374511719,5.3954048157,11.4631347656,8.8057136536,16.8807373047,1.8883972168,2.9998779297,4.1878433228,5.8207702637,5.589050293,9.1469116211,1.4245834351,3.3816223145,5.1494407654,5.2397460938,6.0015296936,9.0091247559,3.7693939209,4.4360351562,7.5412025452,8.8700561523,11.3075027466,13.3087158203,3.9568939209,4.6632995605,9.2846908569,7.8383483887,13.4022521973,12.3380126953.6465377808.7065124512,2.1514968872.591796875,2.0266723633,2.0896911621,5.21118927,3.0055236816,9.7526473999,6.9649963379,14.7118453979,10.3301391602,3.7415924072,2.5389099121,7.6727905273,4.977355957,11.7027740479,6.7551574707,4.0753250122,1.7978515625,7.5956420898,4.9280700684,12.1980361938,5.5273742676,6.2824707031,4.0995788574,13.8041610718,5.3005065918,20.3862075806,8.7020874023.1026763916.0530700684.2947387695-.0669250488.6362609863-.156036377v-27.7070007324c-4.9879760742-1.0711669922-9.1858673096-3.824005127-13.707611084-5.7557983398-3.7851791382-1.6170959473-7.3387908936-3.966583252-11.0755767822-5.8439941406-.3129959106-1.6777954102-2.7905731201-.7351074219-3.0700531006-2.6524963379-.2822875977-1.9366149902-2.4115982056-.372833252-3.5820007324-1.7810974121-3.5153198242-4.2297668457-9.0975799561-6.1968383789-12.4820861816-10.7005310059-3.070098877-1.1459960938-5.022102356-3.730682373-6.9052963257-6.0890808105-1.9062805176-2.387298584-4.7545471191-3.7102355957-6.3727035522-6.2379150391-2.1575164795-3.3702392578-5.2435684204-5.9443359375-7.5103759766-9.2583618164-1.5086135864-2.2055358887-3.0135574341-4.4711303711-4.6271820068-6.5567932129-1.66796875-2.1559143066-2.9370880127-4.4979248047-4.389465332-6.7451171875-.2989273071-.4624938965-.1320495605-1.268371582-.7567443848-1.6737670898-3.1917877197-2.0714111328-3.1209564209-6.0949554443-5.2003211975-8.8843688965-.5278701782-.7081298828-.5464744568-2.1470794678-1.5258750916-2.8092803955-1.2761421204-.8628234863-.5111808777-2.346496582-1.2175636292-3.5404968262-.7917556763-1.3383331299-1.3456344604-3.0764923096-1.9173164368-4.6694488525-1.0931472778-3.0459442139-1.9323043823-6.1845092773-3.4686660767-9.0603637695.8998718262-4.3128356934-2.639087677-7.8959655762-2-12.1659240723-3.0982284546-5.2073669434-1.6506347656-11.21144104-2.8039169312-16.7900695801-.9578323364-4.6332092285-.3192367554-9.6259613037-.1609802246-14.4520111084.1541137695-4.6997070312.1223907471-9.3733978271.6994285583-14.1129455566.6370124817-5.2321472168.9409942627-10.4911804199,2.2569732666-15.6342468262,1.0421867371-4.0730285645,1.9340591431-8.1858825684,3.0451965332-12.2392578125.4434242249-1.6175842285,1.5823669434-3.067565918,1.8966293335-4.6921234131.4766845703-2.4642028809,1.3537025452-4.908996582,2.2906608582-7.0575256348,1.017375946-2.3329620361,1.4904174805-5.0238494873,3.4638824463-7.1243972778,1.6099243164-1.7135925293,1.9453773499-4.5628738403,3.3791732788-6.5174255371,2.4219055176-3.3015518188,3.2886962891-7.5876922607,6.6242599487-10.2718963623,1.1530075073-3.9877166748,4.9078140259-6.1463546753,6.8009338379-9.6667556763.90675354-1.6861572266,3.0003890991-2.7021331787,4.0796203613-4.336517334,1.0603103638-1.6057128906,1.6477966309-3.4803771973,3.8890457153-3.8054199219-.1100158691-1.8400802612,2.2284164429-1.6954193115,2.6014480591-3.3231201172.400100708-1.74584198,2.7677307129-1.4780197144,3.6408157349-2.8941955566.1575164795-.2555007935.206413269-.5797348022.2958374023-.8751449585.356842041-1.1788864136,1.3285522461-1.9255371094,2.2143478394-2.553527832,3.1339950562-2.2218475342,6.2177505493-4.4705123901,9.0734405518-7.069442749,3.025428772-2.7533950806,6.7861862183-4.5336837769,9.9422531128-7.2019958496,2.459312439-2.0792388916,5.3717651367-3.959815979,8.402557373-4.93309021,3.1759109497-1.0198860168,5.9403991699-2.738910675,8.7102355957-4.2926902771,3.4292449951-1.9236907959,7.4339752197-2.1908912659,10.4929504395-4.2961463928.7543029785-8.782459259-.8313140869-17.5275115967,1.1344299316-26.5606460571ZM241,351.0655212402c2.7348480225-2.7383728027,5.4589385986-3.111541748,7.9029388428-3.9014282227,1.9293212891-.6235351562,3.8107910156-.9873657227,5.6641235352-2.0843505859,4.5088653564-2.6687316895,10.0244598389-3.3889160156,14.049118042-7.0797424316,2.7698974609.4277648926,3.9572753906-2.3343811035,6.219329834-3.1059875488,2.305267334-.7863464355,4.3746032715-2.3420715332,6.4488830566-3.7100219727,3.2856750488-2.1668701172,6.3167724609-4.7862243652,9.7757873535-6.6052246094,3.5595703125-1.8719482422,6.236541748-4.8176269531,9.6068115234-6.9043579102,2.206451416-1.3661804199,3.5671691895-4.120880127,5.791595459-5.429107666,2.1470947266-1.2626953125,2.8834533691-3.954864502,5.3978881836-4.601776123,3.6375732422-5.5147705078,8.8100585938-9.7845153809,12.412689209-15.3436279297.9414672852-1.4527282715,2.2041931152-2.7213745117,3.2675170898-4.1098022461,1.066192627-1.3921813965,1.3610534668-3.4188537598,3.0635986328-4.2570495605,1.9468994141-.9584655762.8291931152-3.4090881348,2.3681640625-4.5644836426.2407531738-.1807250977-.0264282227-.9105224609.4411315918-1.2935180664,2.421661377-1.9838562012,3.0868835449-5.084777832,4.737487793-7.4928588867,1.7843017578-2.6030883789,3.4775695801-5.19140625,4.8174743652-8.0386352539,3.8106689453-8.0975341797,7.1321105957-16.4074707031,9.8092041016-24.9277038574,1.7700500488-5.6334838867,3.4684143066-11.313949585,4.395324707-17.2266235352.3988952637-2.5444488525.0010986328-5.4405822754,1.0494995117-7.4989929199,1.0440979004-2.0499725342.0934448242-4.1235961914,1.2866516113-6.0004730225,1.188293457-1.8692474365.6373901367-4.2221374512.3952941895-6.2674407959-.2663574219-2.2499847412,1.0215759277-3.9879455566,1.1754455566-6.0904083252.5190429688-7.0913085938-1.3689575195-14.0294799805-1.0768127441-21.0860595703.0068969727-.1663513184.071685791-.3901977539-.0096740723-.4913787842-1.4861755371-1.8477935791-.3486633301-4.2663879395-1.130065918-6.030380249-.9287414551-2.0966033936-.3389587402-4.2118682861-.9594726562-6.1138153076-.7417907715-2.2736358643-.693145752-4.6393280029-1.4243164062-6.8952484131-.857421875-2.6454162598-1.8770141602-5.3335723877-2.3497314453-7.9987792969-1.4246520996-8.0323181152-5.054107666-15.2627868652-7.6389770508-22.8629150391-1.1860656738-3.4873352051-3.2973327637-6.5844497681-4.6212158203-10.0840148926-1.2951049805-3.4235534668-4.706237793-5.8740615845-5.2245178223-9.8281402588-4.093170166-5.6105194092-7.9303283691-11.4075393677-11.8617248535-17.1237411499-1.5260925293-2.2189407349-4.2256469727-3.5877609253-4.7794494629-6.4757232666-3.5823974609-3.7779769897-7.5747680664-7.1822891235-10.5191955566-11.5417098999-3.0180969238-.9493942261-4.5139160156-3.7041931152-6.6081237793-5.7121658325-2.2178955078-2.1265449524-5.1525878906-3.2405433655-7.2914123535-5.3117713928-4.2730102539-4.1379547119-9.318939209-7.0609741211-14.4265441895-9.9157371521-.5470581055-.3057670593-1.1271057129-.5448722839-1.5790710449-.990146637-3.8820800781-3.8247261047-9.5106201172-4.6915512085-13.6546020508-8.0701789856-3.4814758301-.4740371704-6.1651000977-2.8020896912-9.2937011719-4.1115951538-3.1202697754-1.3060035706-6.5466918945-1.8366622925-9.426651001-3.8313846588-1.3756408691-.9527931213-3.1110076904-1.6936779022-5.2006988525-.6907501221,0,7.8379039764.1807250977,15.8077449799-.09765625,23.7615184784-.0979156494,2.7971916199,1.2916107178,3.9394836426,3.327041626,4.5284538269,4.2091217041,1.2179450989,7.7396697998,3.8117141724,11.7473907471,5.4484405518,2.7051086426,1.1047515869,4.8258666992,3.6476745605,7.5341491699,4.7351913452,2.8429260254,1.1415939331,4.4434509277,3.7985153198,7.4194641113,4.8420791626,2.0711975098.7262802124,3.6192321777,3.0504989624,5.6016235352,4.4893264771,3.1253051758,2.2683868408,5.9390563965,4.9886245728,8.7551574707,7.6544113159,3.1450500488,2.9771270752,6.1753540039,6.0778808594,9.1965637207,9.1822967529,1.571105957,1.6143569946,3.0679626465,3.3087463379,4.5029602051,5.0457763672,1.8321838379,2.2177734375,3.2423706055,4.9234924316,5.4320068359,6.6694488525,2.4481506348,1.9520645142,2.4649353027,5.1561050415,4.773223877,7.1586532593,1.6903991699,1.4665527344,2.8177185059,3.7609405518,3.7438964844,5.8836364746,1.1178283691,2.5618972778,2.8817443848,4.7398452759,3.8361816406,7.4113464355.9797058105,2.7420806885,2.6604614258,5.2274169922,3.7515563965,7.938949585.4612121582,1.1461791992,1.5700378418,1.9774780273,1.4948425293,3.3892059326-.1386413574,2.6026000977,1.175567627,4.8650817871,2.1876220703,7.0797271729,1.3804931641,3.020904541,1.8930358887,6.2255554199,2.7680969238,9.3509063721.4199523926,1.5-.3134765625,3.0554962158.8929443359,4.6762542725.9034118652,1.2137908936.3681030273,3.2869415283.8821411133,5.0582580566.5823059082,2.0065155029,1.1624450684,4.3130187988,1.2037963867,6.5121612549.1283874512,6.8292388916.2222595215,13.668182373-.0028076172,20.492401123-.2208251953,6.6953430176,1.0708618164,13.4728393555-.9501953125,20.0823669434.6253662109,5.0654296875-2.7036743164,9.5916595459-2,14.667755127-1.7440490723,3.6351013184-2.421661377,7.6314697266-3.865020752,11.3917541504-1.4371643066,3.7441711426-2.7431030273,7.5204467773-4.5421142578,11.1212158203-1.168762207,2.3392486572-1.8172912598,4.998260498-3.2713928223,7.1220703125-2.6540527344,3.8765869141-4.617767334,8.1435546875-7.1276245117,12.10546875-2.3779907227,3.7537536621-6.5141906738,6.2267150879-7.6461181641,10.7869262695-2.17578125-.3311462402-1.543762207,2.0590209961-2.7236938477,2.8329467773-1.3641662598.894744873-2.4189453125,2.2720336914-3.5720825195,3.4743041992-.9906921387,1.0328369141-2.333404541,1.8274841309-2.4799499512,3.4684753418-4.2898864746,2.0728759766-6.6167907715,6.3314819336-10.2124938965,9.1612854004-1.9494628906,1.5342407227-4.3000488281,2.5974731445-5.2846374512,5.1107177734-4.282623291,1.7822265625-7.3447875977,5.385345459-11.3500976562,7.5922241211-4.6177978516,2.5444335938-9.149597168,5.2470703125-13.7969818115,7.7348632812-2.5750427246,1.3784790039-5.2894439697,2.5061950684-7.9791564941,3.6578979492-2.1636199951.9263916016-3.2379608154,2.2970581055-3.1966552734,4.8236083984.1302337646,7.9670410156.0480194092,15.9375610352.0480194092,25.2569274902ZM200,20.3318328857v149.1704101562c0,12.3314361572.1633453369,24.6656341553-.0458679199,36.9935150146-.209777832,12.3611602783,1.0327453613,24.7652130127-.9541320801,37.0805358887v109.9823303223c0,.4999084473-.0204467773,1.0008239746.0035552979,1.4995727539.1044921875,2.170501709.7645874023,2.8479309082,2.9330291748,2.93359375,1.1646575928.0459899902,2.3458404541-.1016235352,3.4957122803.0364990234,1.3821105957.1660766602,2.1330718994-1.3275756836,3.5950622559-1.0645141602,3.5901641846.6459960938,6.9568939209-1.6156616211,10.5772399902-.9623413086.7495422363.1352844238,1.1414642334-.4228515625,1.6957550049-.7496948242,1.9682159424-1.1608276367,1.7030639648-3.0106811523,1.7024841309-4.8198547363-.0049438477-15.4974975586-.0028381348-30.9950256348-.0028381348-46.4925231934v-93.4849853516c0-15.6641540527-.1602630615-31.3303985596.0455322266-46.9918518066.2018432617-15.3605041504-1.0234222412-30.7551574707.9544677734-46.0789108276V28.3979187012c0-.9998397827-.0194091797-2.0001468658.0046844482-2.9994068146.0334777832-1.3876667023-.8335876465-2.3472652435-1.9833679199-2.3298797607-2.6093444824.0394554138-4.900680542-1.6231117249-7.5951843262-1.1203193665-1.3791046143.2573413849-2.7920227051-.5302257538-4.1079406738-.7689857483-3.2589263916-.5912971497-6.5361175537-2.0377159119-10.3181915283-.8474941254ZM182,20c-3.3377075195,0-6.297454834-.525510788-8.9711608887.1248817444-3.8760986328.9428672791-7.6705169678,1.9219112396-11.6957244873,1.9213447571-1.3852081299-.0001945496-2.3809356689.8887557983-2.3353271484,2.4974040985.0141601562.4993476868.0022125244.9994392395.0022125244,1.4991893768v83.9581260681c0,6.9965133667-.2853393555,14.0079803467.0805511475,20.9853057861.3633880615,6.929473877-1.0945281982,13.7004699707-1.0924530029,20.5795440674.0198822021,66.1337738037.0119018555,132.2675476074.0119018555,198.4013366699,0,.9995117188-.0293884277,2.0000305176.0060119629,2.9982910156.0776824951,2.1910095215.6819610596,2.907043457,2.8367919922,3.015045166,3.0514831543.1529846191,5.9437408447,1.6789245605,9.080078125,1.01953125,3.5377655029,2.0215454102,7.284072876.5047607422,10.8645935059,1.0966796875.1168670654-.7654418945.2063751221-1.078704834.2065429688-1.391998291.0069580078-13.4932861328.0059814453-26.986541748.0059814453-40.4798278809,0-13.6598510742-.1264190674-27.3211975098.0359649658-40.9791259766.1588134766-13.3573913574-.8743743896-26.7483978271.9640350342-40.0660247803V20Z"/>
  <path class="cls-3" d="M0,204c1.3744916916.0134429932,1.0501391888,1.0845184326.973852396,1.7847595215-.4820147753,4.4244384766,1.7470610142,8.6269836426,1.026147604,13.0601501465,1.9181871414,6.2691192627,2.5740175247,12.8338623047,4.4607739449,19.1086120605,1.8225131035,6.0610809326,3.5396161079,12.1611938477,5.6240925789,18.1320495605.6977405548,1.998626709,1.6404008865,3.9718322754,2.4931621552,5.9464416504,2.1330404282,4.9392089844,4.1596212387,9.9544067383,6.7222242355,14.671081543,3.8606433868,7.1058349609,7.9051532745,14.1384277344,12.657743454,20.7004699707,3.2669334412,4.5107421875,6.7089767456,8.911315918,10.049785614,13.3591308594,2.9184875488,3.8855285645,5.6784286499,7.8628234863,9.3452148438,11.0263061523,8.0464477539,6.9420166016,15.6228866577,14.3834838867,24.2984695435,20.6689147949,5.8824768066,4.2618713379,11.8093490601,8.5352478027,17.9408874512,12.3240661621,5.5726242065,3.4434204102,11.6820602417,6.2332763672,17.7329940796,8.8969116211,3.21434021,1.4149780273,6.6775436401,2.3389587402,9.8156890869,3.9953308105,1.2889709473.6803588867,2.5881881714.0801696777,3.8589630127.3257751465,2.8233795166,2.6998291016,6.3339996338,3.1088562012,10,3,.4688262939,1.9268493652,2.0158233643.6192016602,3,1,.116394043.2830505371.1730957031.7648620605.3578491211.8203735352,5.9571685791,1.7895202637,12.0759429932,3.0548400879,18.1757202148,4.0071411133,4.7279663086.7381591797,9.5661621094,1.8413085938,14.4664306641,1.1724853516v1H0v-175Z"/>
  <path class="cls-3" d="M293,348c.4992370605,0,1.1807861328.2142028809,1.4703369141-.0321960449,4.2538757324-3.6197509766,8.9710083008-6.6249389648,13.361328125-10.0748291016,7.4948730469-5.8894348145,14.4891052246-12.275390625,20.878326416-19.263458252,4.493347168-4.9145202637,8.49609375-10.3022766113,12.397857666-15.7586669922,3.3931274414-4.7449951172,6.5273132324-9.657409668,9.921295166-14.3939819336.3649291992-.5093078613.7282104492-.977142334,1.0299377441-1.565612793,2.7488708496-5.361541748,5.806060791-10.5688476562,8.4530944824-15.9778442383,4.6767883301-9.5566101074,7.8033752441-19.7341461182,11.4878234863-29.6868743896.1377563477-5.2473297119,3.1324462891-9.9319915771,3-15.2325286865,1.3858947754-1.6701812744.5096435547-3.8191986084,1.1139831543-5.5366516113.6636047363-1.8860015869.4488220215-3.8357543945.9855041504-5.5863494873,1.0296325684-3.3583831787.8349609375-6.7160186768.9175109863-10.1000671387.0126342773-.5178222656.3514404297-.9046630859.983001709-.7909393311v175h-173v-1c4.0916900635.702911377,7.983001709-1.0143127441,12.0163421631-.994720459,1.7591094971.0085754395,3.3931884766-.1920776367,5.09324646-.9161376953,1.6816101074-.7161865234,3.9234161377.6863098145,5.5145111084-1.0891418457,3.3680114746.1196594238,6.3944702148-1.4004821777,9.6003875732-2.0623474121,4.3630523682-.9007568359,8.6795196533-2.0995178223,12.7755126953-3.9376525879,2.5195617676-.5654602051,5.1018066406-.9847106934,7-3,1.7067260742.0801086426,3.4398803711.213104248,4-2h2c3.2135314941-1.3801574707,6.6490783691-2.401550293,9.5903320312-4.2216491699,4.8358154297-2.9925537109,10.0994567871-5.1001281738,14.9929199219-7.9291381836.6025695801-.3483886719,1.4539794922-.8497619629,1.4167480469-1.8492126465.6920776367.0254211426,1.0254211426-.3079223633,1-1,.758026123-.1506347656,1.9146728516.4960021973,2-1Z"/>
  <path class="cls-3" d="M284,25c-.7828979492-1.6340065002-1.931854248-2.7991733551-3.7624816895-3.2831745148-2.4982910156-.6605243683-4.6592407227-2.2482471466-7.2375183105-2.7168254852-.0853271484-1.4959983826-1.241973877-.849357605-2-1-1.5121459961-2.9161262512-4.1943359375-3.1020994186-7-3-.7939453125-2.8484888077-3.1484375-1.7955598831-5-2-.3918151855-1.5789394379-1.448425293-2.1607093811-3-2,0-.16543293.0420532227-.4623146057-.0059509277-.4776687622-6.3004150391-2.0151538849-12.5594177246-4.0899710655-19.0185089111-5.6659288406-7.6701202393-1.871434927-15.2068786621-4.0610212088-23.1941680908-3.8760920763-.504776001.0116870403-.8949890137-.3543952703-.7813720703-.9803103209h166v173c-.6321411133.1137695312-.9905395508-.2782897949-.9806213379-.791015625.0936584473-4.8315429688-1.0296020508-9.4661254883-1.8488769531-14.1865997314-.6739807129-3.8834381104-1.3052062988-7.7727203369-2.1491699219-11.6342010498-1.4583435059-6.6727142334-3.4401550293-13.1684570312-5.6732788086-19.6278610229-3.1311340332-9.056968689-6.6937255859-17.8825531006-11.3240966797-26.2862701416-3.308380127-6.0044403076-6.7769470215-11.8852539062-10.4182739258-17.7029953003-3.0877075195-4.9332885742-7.4088134766-9.0037231445-9.7387390137-14.4040985107-4.6418762207-3.7942810059-6.9621276855-9.9003448486-12.6383972168-12.6864547729-.5229492188-.2566719055-1.1188354492-.9373626709-1.1685791016-1.4690742493-.1109619141-1.1864891052-.9547119141-1.8555412292-1.7008666992-2.2721786499-3.3658752441-1.8793869019-5.6924743652-4.8762664795-8.3652648926-7.4910163879-1.1718139648-1.1463737488-2.5977172852-1.7407455444-3.9938354492-2.4482345581-.2431945801-1.0901298523-.9099121094-1.7567596436-2-2-.2152709961-1.2404327393-1.2332763672-2.1369972229-2.1048583984-2.4920806885-3.2987670898-1.3439712524-5.3925476074-4.5649299622-8.8951416016-5.5079193115-.3918151855-1.5789375305-1.448425293-2.1607093811-3-2-1.4244689941-1.6513519287-4.3280944824-3.5871009827-6-4-.4688110352-1.9268665314-2.015838623-.6191883087-3-1Z"/>
  <path class="cls-3" d="M134,7c-1.5515899658-.160712719-2.6081695557.4210863113-3,2-2.8240966797.0369691849-5.7563476562-.3587265015-8,2-2.5195617676.5654630661-5.1017913818.9847002029-7,3-.6920852661-.0254182816-1.0254211426.3079128265-1,1h-2c-3.9623031616,1.7455005646-8.3114318848,2.7491550446-11.4926376343,5.9926376343-4.7233734131.5442829132-8.0819702148,3.84516716-11.9622879028,6.0444355011-3.9366912842,2.2312145233-7.689781189,4.8043384552-11.4141769409,7.3851680756-2.1094360352,1.4617347717-3.5956954956,3.5983848572-5.8816833496,5.0349655151-3.1224441528,1.9622383118-5.7440948486,4.7514419556-8.4730834961,7.3010368347-2.6128196716,2.4410629272-5.7102127075,4.2777671814-8.1182632446,6.9999198914-2.4808692932,2.8044776917-5.0766906738,5.521987915-7.6243171692,8.2727127075-2.6208953857,2.8298339844-5.2785224915,5.7095031738-7.3731117249,8.9237823486-3.3670883179,5.1669998169-7.8950233459,9.4528045654-10.9343204498,14.8340454102-1.2154178619,2.1519546509-2.0563087463,4.450302124-3.3873958588,6.6108779907-3.7142162323,6.0288162231-6.9175357819,12.3996124268-9.9484329224,18.8122253418-1.8984003067,4.0165481567-3.1211805344,8.3524246216-4.647110939,12.5450210571-1.5259275436,4.1925888062-3.5881118774,8.2798080444-4.4380807877,12.6052322388-.9967937469,5.0726013184-2.7683534622,9.9357452393-3.4396324158,15.1143493652-.5680780411,4.3824615479-1.5452885628,8.7107543945-2.0891735554,13.1363830566-.3516962528,2.8617858887-.6352493763,5.7171173096-.7914813757,8.5962982178-.0282328129.5202941895-.3535546064.9046173096-.9848102331.7909088135V0h166c-.0108032227,1.3599359989-1.0773162842,1.0732517242-1.7669372559.9710915089-4.2480621338-.6292901039-8.3704986572.6402616501-12.4481658936,1.2309601307-4.0544433594.5873370171-7.9861907959,2.3510141373-12.1696472168,2.7979483604-1.4642486572,1.8107738495-4.0923614502.3538722992-5.6152496338,2Z"/>
  <path class="cls-1" d="M134,7c1.5228881836-1.6461277008,4.1510009766-.1892261505,5.6152496338-2,4.1834564209-.4469342232,8.1152038574-2.2106113434,12.1696472168-2.7979483604,4.0776672363-.5906984806,8.2001037598-1.8602502346,12.4481658936-1.2309601307.6896209717.1021602154,1.7561340332.3888444901,1.7669372559-.9710915089h47c-.1136169434.6259150505.2765960693.9919973612.7813720703.9803103209,7.9872894287-.1849291325,15.5240478516,2.0046571493,23.1941680908,3.8760920763,6.4590911865,1.5759577751,12.7180938721,3.6507749557,19.0185089111,5.6659288406.0480041504.0153541565.0059509277.3122358322.0059509277.4776687622-1.5213165283,1.9353904724-3.6003417969,1.3625249863-4.960647583.3409194946-1.3056182861-.9805145264-2.4566497803-1.4565496445-3.9664154053-1.3344182968-1.0367126465.0838661194-1.9725952148-.0176868439-2.5748748779-1.0085468292-.6032562256-.9924764633-1.5461730957-1.1280145645-2.5757141113-.994641304-1.9640655518.2544364929-3.7733612061-.3231983185-5.5646820068-1.0045137405-1.6330718994-.6211147308-3.2379455566-1.3028268814-5.0704345703-1.0215129852-.6225738525.0955786705-1.5079040527.1797499657-1.8945922852-.1607627869-2.7523345947-2.4237194061-6.0596313477-1.7014217377-9.2307434082-1.8311338425-1.2477416992-.0510377884-2.393447876-.2646846771-3.664276123-.7499265671-2.2905426025-.8745882511-4.8139038086-1.3532242775-7.4668579102-1.317006588-13.117980957.1790864468-26.2416687012.2031087875-39.3587188721-.0070698261-3.1353912354-.050239563-6.0104827881.9520347118-9.0405273438,1.2325179577-.8884735107.0822439194-1.9037780762.8948864937-3.0871276855.8744635582-6.0735778809-.104824543-11.7818756104,1.7229533195-17.4967956543,3.4526457787-2.5932617188.7848844528-3.9472503662.7507991791-6.0475921631-.4710140228Z"/>
  <path class="cls-1" d="M251,369c-4.095993042,1.8381347656-8.4124603271,3.036895752-12.7755126953,3.9376525879-3.2059173584.6618652344-6.2323760986,2.1820068359-9.6003875732,2.0623474121-1.5910949707,1.7754516602-3.832901001.3729553223-5.5145111084,1.0891418457-1.7000579834.7240600586-3.3341369629.9247131348-5.09324646.9161376953-4.0333404541-.0195922852-7.9246520996,1.6976318359-12.0163421631.994720459-.9414215088,0-1.8828582764.0030212402-2.8242645264-.0010375977-.6823730469-.0029296875-1.237411499.1343994141-1.1757354736,1.0010375977h-25c.0616760254-.8666381836-.4933624268-1.0039978027-1.1757354736-1.0010375977-.94140625.0040283203-1.8828430176.0010375977-2.8242645264.0010375977-4.9002685547.6688232422-9.7384643555-.4343261719-14.4664306641-1.1724853516-6.0997772217-.9523010254-12.2185516357-2.2176208496-18.1757202148-4.0071411133-.184753418-.0555114746-.2414550781-.537322998-.3578491211-.8203735352,2.6555023193,0,5.3110351562.0059509277,7.9665222168-.0023803711,1.4715118408-.0046081543,2.971572876-.1977844238,3.9235992432,1.3717651367.6533660889,1.0771179199,1.7975311279.645904541,2.7153320312.603515625,3.3930664062-.1567687988,6.6008148193.526184082,9.7132263184,1.8235168457.4243469238.1768798828.9453277588.2308959961,1.4081726074.1900939941,7.0466918945-.6211853027,13.9401702881,1.5988769531,21.0006866455,1.0619506836,3.6303253174-.2760620117,7.3275146484-.3283996582,10.9411621094.0406188965,2.8612823486.2921447754,5.2456665039-1.4389648438,8.065322876-1.1471557617,2.6273651123.2719116211,5.4616241455.6072998047,7.9174346924-.0930175781,2.5679168701-.7322387695,5.0409088135-.796875,7.5953979492-.8476257324.6415557861-.0127563477,1.1810913086-.1887817383,1.8006134033-.4671630859,2.4658660889-1.1080627441,5.0363769531-1.7861633301,7.8295898438-1.5675354004,3.0414428711.2381286621,6.1028137207-.7380981445,8.5066833496-2.1731567383,1.7505340576-1.0451049805,3.9151763916.1659240723,5.2924346924-1.8549499512,1.3252410889-1.9445495605,3.6718902588-.623626709,5.5419921875-.9069824219.4801330566-.0727539062.8955230713.3395080566.781829834.9685058594Z"/>
  <path class="cls-1" d="M379,196c-.6276855469.1136474609-.9776916504-.2733001709-.9817199707-.7847290039-.0325927734-4.1433563232-.0325927734-8.2871856689,0-12.4305419922.0040283203-.511428833.3540344238-.8983764648.9817199707-.7847290039v14Z"/>
  <path class="cls-2" d="M173,378c.9414215088,0,1.8828582764.0029907227,2.8242645264-.0010375977.6823730469-.0029602051,1.237411499.1343994141,1.1757354736,1.0010375977h-4v-1Z"/>
  <path class="cls-2" d="M202,379c-.0616760254-.8666381836.4933624268-1.0039672852,1.1757354736-1.0010375977.94140625.0040588379,1.8828430176.0010375977,2.8242645264.0010375977v1h-4Z"/>
  <path class="cls-1" d="M140.6773223877,77.0920410156c.711517334,1.2482299805.2982177734,2.5973587036.2989044189,3.871307373.02784729,51.6212463379.0237731934,103.2424926758.0237731934,154.8637542725-1.7898712158,10.8075256348-.8277893066,21.7015533447-.9685821533,32.5571746826-.1425018311,10.988494873-.0305480957,21.9802856445-.041809082,32.9706115723-.0001373291.1319580078-.1567077637.2638244629-.4559173584.7362976074-1.1200408936-1.6188964844-2.8227386475-2.2848815918-4.4374237061-3.0824890137-5.4337921143-2.6842346191-10.8524169922-5.4114990234-15.7352905273-9.0294189453-4.7343597412-3.5078735352-9.798614502-6.5606994629-13.9791793823-10.8580322266-1.0950241089-1.1256103516-2.5748214722-2.3363952637-3.8438186646-3.4150085449-1.1808700562-1.003692627-1.9340744019-2.9957580566-3.376083374-3.9295654297-1.6127548218-1.0444030762-1.59324646-3.5316162109-3.7801055908-3.8948974609.1000137329-2.0010986328-2.5755004883-2.4681091309-2.4714584351-4.4714355469-3.6470565796-2.8271179199-5.3403396606-7.075592041-7.7308959961-10.7942810059-2.924949646-4.5500183105-5.1078414917-9.4890899658-7.2802352905-14.4579162598-2.0434417725-4.673828125-3.4847793579-9.5619354248-5.5700454712-14.1766662598-1.1163024902-2.470413208-1.5313644409-5.0582885742-2.1991577148-7.5663299561-.5977935791-2.2451477051-1.7627029419-4.5483856201-1.1299972534-7.0445861816-1.9771652222-2.4001617432-.2621459961-5.5852661133-1.8588104248-8.2483215332-.8078460693-1.347366333-.0551071167-3.5841522217-.1690826416-5.4087677002-.0873718262-1.3986206055.5036392212-2.868270874-.8022079468-4.1982421875-.5081634521-.5175476074-.5667495728-2.2685852051-.0914077759-2.8143310547,1.5554428101-1.7858428955.6316070557-3.7812042236.9186401367-5.649307251.3674926758-2.3917388916-.7574310303-4.9033813477.6572570801-7.2241210938,1.200012207-1.9686126709-.7747955322-4.6343536377,1.3456115723-6.4342803955-.0852737427-7.7303314209,3.7870178223-14.4204559326,5.5669631958-21.6477203369.9578475952-3.8892211914,3.3015289307-6.9652252197,4.5322036743-10.6448822021,1.2122650146-3.6246337891,3.0903015137-7.0583190918,4.9563064575-10.4203262329,1.0715026855-1.9305496216,2.5497055054-3.7038345337,4.1268386841-5.2625808716,1.1619415283-1.1484069824.0560760498-3.8354949951,2.7146377563-3.8146286011-.2882766724-1.884185791,1.9073867798-2.3289260864,2.2803649902-4.0837554932.324180603-1.5251846313,2.2517166138-2.4817733765,3.1528396606-4.1388320923,1.0680770874-1.9640884399,3.0380249023-3.5237884521,4.8456192017-4.9738998413,1.6026916504-1.285736084,2.3888397217-3.1968078613,4.0313873291-4.4512557983,1.8228988647-1.3921661377,3.1604537964-3.5178756714,5.1064529419-4.6281204224,3.0172119141-1.7213592529,5.5560531616-4.0714645386,8.517364502-5.8736038208,2.3859176636-1.451965332,5.138343811-2.3403396606,7.1460647583-4.7081222534,1.743812561-2.0565261841,4.7972640991-2.7948074341,7.2194900513-4.1561431885,2.5651245117-1.4416351318,5.2096862793-3.342590332,8.4807891846-3.4972763062Z"/>
  <path class="cls-1" d="M242.3204498291,79.2108917236c1.5545959473-.9890289307,2.9592590332.1715774536,3.9030761719.87940979,2.2877502441,1.7157592773,5.1512298584,2.3390960693,7.3158416748,4.0616226196,2.1176147461,1.6851043701,4.4497375488,2.9968566895,6.6113586426,4.5682678223,3.496307373,2.5416488647,6.9351806641,5.1575546265,10.2462768555,7.9722518921,2.8592224121,2.4305496216,5.5630187988,5.0024032593,8.3532714844,7.4941711426,1.9696044922,1.7589035034,2.823638916,4.3162231445,4.8766174316,6.0238952637,1.9511108398,1.6229553223,3.823425293,3.4008026123,4.4481201172,6.1342468262.1898193359.8305740356,1.1792907715,1.5887680054,1.9672851562,2.1479949951,1.3946533203.9897918701,2.1140441895,2.5268630981,2.670715332,3.9081802368.3977050781.9867477417.9031982422,2.4106674194,1.3879089355,2.8551940918,3.8847961426,3.5626296997,3.822845459,9.3621139526,7.5723266602,12.9171218872-.1855773926,4.7863616943,3.8246765137,8.0294342041,4.5176696777,12.6660919189.5350952148,3.5802612305,1.8797912598,7.1703643799,2.9587402344,10.7205810547,1.5247497559,5.0171661377,3.3795776367,9.9629364014,2.798248291,15.2910766602-.3981933594,3.649810791.8601074219,7.0393371582,1.0849914551,10.5793762207.2080383301,3.2747039795-.6957397461,6.390625-.9733886719,9.5839538574-.2729797363,3.1400604248.1891479492,6.3479003906-.1318359375,9.4787750244-.3002624512,2.9288482666-1.1557922363,5.9203643799-2.1256713867,8.5986480713-1.5390625,4.2498931885-2.230682373,8.6915740967-3.6640930176,12.9481048584-.6485290527,1.9258117676-1.5276794434,3.7475891113-2.3681335449,5.5166931152-.8214416504,1.7290649414-2.0242614746,3.2148590088-1.7647094727,5.2680053711.0709533691.5615692139-.3286132812.8550872803-.5696716309,1.2684173584-2.266204834,3.8851470947-4.4854431152,7.7976989746-6.7358703613,11.6921234131-.160949707.2785491943-.573425293.4344024658-.6802368164.7183227539-2.4025268555,6.385925293-7.3517456055,10.9899597168-11.2173156738,16.3654174805-3.0210876465,4.201171875-6.5864868164,7.8536376953-10.4388122559,11.0556945801-5.588104248,4.6447753906-10.7572937012,9.9534912109-17.5085601807,13.0887145996-1.8853607178.8755493164-2.8932495117,2.8795776367-4.9618682861,3.703704834-2.2716522217.9050598145-4.8697052002,1.2509460449-6.6809082031,3.2381286621-.2917633057.320098877-1.2366790771.044921875-1.8878479004.044921875-.6546325684-1.4062805176-.300201416-2.7451477051-.3019561768-4.0263366699-.0305328369-22.3137817383-.7509918213-44.659362793.2199707031-66.930847168.7135772705-16.3677978516.5207519531-32.7037811279.7144165039-49.0518341064.1972198486-16.6491699219.0435943604-33.3025054932.0435943604-49.9540100098,0-16.4850006104-.0019073486-32.9700012207.0098876953-49.4549942017.0003204346-.463142395-.2450256348-1.0101013184.3105621338-1.3710861206Z"/>
  <path class="cls-1" d="M141.9692230225,28c-1.9657440186,9.0331344604-.3801269531,17.7781867981-1.1344299316,26.5606460571-3.0589752197,2.105255127-7.0637054443,2.3724555969-10.4929504395,4.2961463928-2.7698364258,1.5537796021-5.534324646,3.2728042603-8.7102355957,4.2926902771-3.0307922363.973274231-5.9432449341,2.8538513184-8.402557373,4.93309021-3.1560668945,2.6683120728-6.9168243408,4.448600769-9.9422531128,7.2019958496-2.8556900024,2.5989303589-5.9394454956,4.8475952148-9.0734405518,7.069442749-.8857955933.6279907227-1.8575057983,1.3746414185-2.2143478394,2.553527832-.0894241333.2954101562-.1383209229.619644165-.2958374023.8751449585-.873085022,1.4161758423-3.2407150269,1.1483535767-3.6408157349,2.8941955566-.3730316162,1.6277008057-2.7114639282,1.483039856-2.6014480591,3.3231201172-2.2412490845.3250427246-2.8287353516,2.1997070312-3.8890457153,3.8054199219-1.0792312622,1.6343841553-3.1728668213,2.6503601074-4.0796203613,4.336517334-1.893119812,3.520401001-5.6479263306,5.6790390015-6.8009338379,9.6667556763-3.3355636597,2.6842041016-4.2023544312,6.9703445435-6.6242599487,10.2718963623-1.433795929,1.9545516968-1.7692489624,4.8038330078-3.3791732788,6.5174255371-1.9734649658,2.1005477905-2.4465065002,4.7914352417-3.4638824463,7.1243972778-.936958313,2.1485290527-1.8139762878,4.5933227539-2.2906608582,7.0575256348-.3142623901,1.6245574951-1.4532051086,3.0745391846-1.8966293335,4.6921234131-1.1111373901,4.0533752441-2.0030097961,8.166229248-3.0451965332,12.2392578125-1.3159790039,5.1430664062-1.6199607849,10.4020996094-2.2569732666,15.6342468262-.5770378113,4.7395477295-.5453147888,9.4132385254-.6994285583,14.1129455566-.1582565308,4.8260498047-.7968521118,9.8188018799.1609802246,14.4520111084,1.1532821655,5.57862854-.2943115234,11.5827026367,2.8039169312,16.7900695801-.639087677,4.2699584961,2.8998718262,7.8530883789,2,12.1659240723,1.5363616943,2.8758544922,2.3755187988,6.0144195557,3.4686660767,9.0603637695.5716819763,1.592956543,1.1255607605,3.3311157227,1.9173164368,4.6694488525.7063827515,1.1940002441-.0585784912,2.6776733398,1.2175636292,3.5404968262.9794006348.6622009277.9980049133,2.1011505127,1.5258750916,2.8092803955,2.0793647766,2.7894134521,2.0085334778,6.8129577637,5.2003211975,8.8843688965.6246948242.4053955078.4578170776,1.2112731934.7567443848,1.6737670898,1.4523773193,2.2471923828,2.721496582,4.5892028809,4.389465332,6.7451171875,1.6136245728,2.0856628418,3.1185684204,4.3512573242,4.6271820068,6.5567932129,2.2668075562,3.3140258789,5.3528594971,5.8881225586,7.5103759766,9.2583618164,1.6181564331,2.5276794434,4.4664230347,3.8506164551,6.3727035522,6.2379150391,1.8831939697,2.3583984375,3.8351974487,4.9430847168,6.9052963257,6.0890808105,3.3845062256,4.503692627,8.9667663574,6.4707641602,12.4820861816,10.7005310059,1.1704025269,1.4082641602,3.2997131348-.1555175781,3.5820007324,1.7810974121.2794799805,1.917388916,2.7570571899.9747009277,3.0700531006,2.6524963379,3.7367858887,1.8774108887,7.290397644,4.2268981934,11.0755767822,5.8439941406,4.5217437744,1.9317932129,8.7196350098,4.6846313477,13.707611084,5.7557983398v27.7070007324c-.3415222168.0891113281-.5335845947.2091064453-.6362609863.156036377-6.5820465088-3.4015808105-14.1037368774-4.6025085449-20.3862075806-8.7020874023-4.602394104-.5993041992-8.1227111816-3.7295227051-12.1980361938-5.5273742676-4.0299835205-1.7778015137-7.9611816406-4.2162475586-11.7027740479-6.7551574707-4.959197998-3.3651428223-9.5006561279-7.3246154785-14.7118453979-10.3301391602.1248245239-1.4978942871-1.3801345825-1.3831787109-2.0266723633-2.0896911621-4.1175613403-4.4996643066-9.4453582764-7.6747131348-13.4022521973-12.3380126953-3.7663002014-4.438659668-7.5381088257-8.8726806641-11.307510376-13.3087158203-.8520812988-3.7693786621-4.5769386292-5.6275024414-6.0015220642-9.0091247559-1.4012069702-3.3261413574-3.7006530762-6.1470336914-5.589050293-9.1469116211-3.4103088379-5.4176025391-5.9042739868-11.2432861328-8.8057136536-16.8807373047-1.5449829102-3.0018920898-2.7007713318-6.2076263428-3.9730758667-9.3453369141-1.2801532745-3.1570587158-1.7307109833-6.5589141846-2.9930782318-9.7540893555-1.4209690094-3.5966186523-3.1661777496-7.1807403564-3.0748386383-11.2223510742-1.6679859161-1.2366943359-1.0580062866-3.0531158447-.92527771-4.5771179199.1382961273-1.5879364014-.8643436432-2.6997375488-1.198972702-4.0597381592-1.1234283447-4.5658111572-1.0324954987-9.3710021973-2.8257846832-13.8016357422-.3476295471-.85887146-.0499649048-1.9789123535-.0499649048-2.9784851074,0-7.1635437012-.0823554993-14.3286590576.0523929596-21.489654541.0382385254-2.0322265625-.6501846313-4.0780944824.7707118988-6.1869659424,1.0809173584-1.6042633057-.8355636597-4.2512512207,1.1732215881-5.9814605713-.7088947296-4.4412841797,1.3639945984-8.4597930908,2.1553096771-12.641998291.8276596069-4.3742828369.9456539154-9.0588531494,3.4975299835-13.010848999-.2004890442-3.1121673584,2.4943447113-5.4241333008,2.3580875397-8.5224304199-.0138149261-.3141326904-.038225174-.7187194824.1298809052-.9365997314,4.0439491272-5.241607666,4.0482254028-12.4354782104,8.4624977112-17.4914321899.8758163452-3.8914337158,3.1109580994-7.073638916,5.2800216675-10.3124694824,1.8256759644-2.7260818481,3.6088638306-5.5621643066,5.1273269653-8.3902435303,1.9216995239-3.5791091919,5.0682220459-6.1436309814,6.8281517029-9.6494903564,1.4768486023-2.941947937,4.2188415527-4.7514266968,5.8095283508-7.5707397461.9980278015-1.7689056396,2.9585037231-2.8755950928,3.8716659546-4.9029083252.8145370483-1.80834198,3.5126953125-1.9992828369,4.1505584717-4.1985702515.121963501-.4205245972.6117095947-.8550796509,1.0379333496-1.0453109741,1.6564407349-.7392654419,3.397064209-1.704460144,4.0623168945-3.2508468628.8432235718-1.9600830078,3.1702575684-1.9926834106,3.9336929321-3.7805023193.6928100586-1.6224365234,3.3727111816-1.2581596375,3.4731063843-3.4732170105,3.5713806152-1.4469337463,6.0594100952-4.5025978088,9.3869171143-6.3030014038.3811340332-.2062225342,1.0170516968.1379776001,1.3233261108-.4120979309,1.6146392822-2.9000473022,4.9433059692-3.4226608276,7.3459625244-5.2425842285,2.2136917114-1.6767921448,4.8125457764-2.8366394043,7.1908340454-4.306552887,3.6955566406-2.2840614319,7.7721099854-3.7696151733,11.6289825439-5.7020721436,2.9101257324-1.4580993652,5.6921081543-3.2010231018,8.9231033325-3.7864761353,2.5217514038-.456943512,4.3089828491-2.3534965515,6.7785720825-3.0154933929,1.3991851807-.3750610352,2.9569854736-.7909927368,4.3838500977-1.4408569336,1.2353210449-.5626277924,2.9298553467-.1169338226,4.8337402344-.1169338226Z"/>
  <path class="cls-1" d="M241,351.0655212402c0-9.3193664551.0822143555-17.2898864746-.0480194092-25.2569274902-.041305542-2.526550293,1.0330352783-3.8972167969,3.1966552734-4.8236083984,2.6897125244-1.1517028809,5.4041137695-2.2794189453,7.9791564941-3.6578979492,4.6473846436-2.4877929688,9.17918396-5.1904296875,13.7969818115-7.7348632812,4.0053100586-2.2068786621,7.0674743652-5.8099975586,11.3500976562-7.5922241211.984588623-2.5132446289,3.3351745605-3.5764770508,5.2846374512-5.1107177734,3.595703125-2.8298034668,5.9226074219-7.0884094238,10.2124938965-9.1612854004.1465454102-1.6409912109,1.4892578125-2.4356384277,2.4799499512-3.4684753418,1.153137207-1.2022705078,2.2079162598-2.5795593262,3.5720825195-3.4743041992,1.1799316406-.7739257812.5479125977-3.1640930176,2.7236938477-2.8329467773,1.1319274902-4.5602111816,5.2681274414-7.0331726074,7.6461181641-10.7869262695,2.5098571777-3.9619140625,4.4735717773-8.2288818359,7.1276245117-12.10546875,1.4541015625-2.1238098145,2.1026306152-4.7828216553,3.2713928223-7.1220703125,1.7990112305-3.600769043,3.1049499512-7.3770446777,4.5421142578-11.1212158203,1.443359375-3.7602844238,2.1209716797-7.756652832,3.865020752-11.3917541504-.7036743164-5.0760955811,2.6253662109-9.6023254395,2-14.667755127,2.0210571289-6.6095275879.7293701172-13.3870239258.9501953125-20.0823669434.2250671387-6.82421875.1311950684-13.6631622314.0028076172-20.492401123-.0413513184-2.1991424561-.6214904785-4.505645752-1.2037963867-6.5121612549-.5140380859-1.7713165283.021270752-3.8444671631-.8821411133-5.0582580566-1.2064208984-1.6207580566-.4729919434-3.1762542725-.8929443359-4.6762542725-.8750610352-3.1253509521-1.3876037598-6.3300018311-2.7680969238-9.3509063721-1.0120544434-2.2146453857-2.3262634277-4.4771270752-2.1876220703-7.0797271729.0751953125-1.4117279053-1.0336303711-2.2430267334-1.4948425293-3.3892059326-1.0910949707-2.7115325928-2.7718505859-5.1968688965-3.7515563965-7.938949585-.9544372559-2.6715011597-2.7183532715-4.8494491577-3.8361816406-7.4113464355-.9261779785-2.1226959229-2.0534973145-4.4170837402-3.7438964844-5.8836364746-2.3082885742-2.0025482178-2.3250732422-5.2065887451-4.773223877-7.1586532593-2.1896362305-1.7459564209-3.599822998-4.451675415-5.4320068359-6.6694488525-1.4349975586-1.7370300293-2.931854248-3.4314193726-4.5029602051-5.0457763672-3.0212097168-3.1044158936-6.0515136719-6.2051696777-9.1965637207-9.1822967529-2.8161010742-2.6657867432-5.6298522949-5.3860244751-8.7551574707-7.6544113159-1.9823913574-1.4388275146-3.5304260254-3.7630462646-5.6016235352-4.4893264771-2.9760131836-1.0435638428-4.5765380859-3.7004852295-7.4194641113-4.8420791626-2.7082824707-1.0875167847-4.8290405273-3.6304397583-7.5341491699-4.7351913452-4.0077209473-1.6367263794-7.538269043-4.2304954529-11.7473907471-5.4484405518-2.0354309082-.5889701843-3.4249572754-1.731262207-3.327041626-4.5284538269.2783813477-7.9537734985.09765625-15.923614502.09765625-23.7615184784,2.0896911621-1.0029277802,3.8250579834-.2620429993,5.2006988525.6907501221,2.8799591064,1.9947223663,6.3063812256,2.5253810883,9.426651001,3.8313846588,3.1286010742,1.3095054626,5.8122253418,3.6375579834,9.2937011719,4.1115951538,4.1439819336,3.3786277771,9.7725219727,4.2454528809,13.6546020508,8.0701789856.451965332.445274353,1.0320129395.6843795776,1.5790710449.990146637,5.1076049805,2.854763031,10.1535339355,5.7777824402,14.4265441895,9.9157371521,2.1388244629,2.0712280273,5.0735168457,3.1852264404,7.2914123535,5.3117713928,2.0942077637,2.0079727173,3.5900268555,4.7627716064,6.6081237793,5.7121658325,2.9444274902,4.3594207764,6.9367980957,7.7637329102,10.5191955566,11.5417098999.5538024902,2.8879623413,3.2533569336,4.2567825317,4.7794494629,6.4757232666,3.9313964844,5.7162017822,7.7685546875,11.5132217407,11.8617248535,17.1237411499.5182800293,3.9540786743,3.9294128418,6.404586792,5.2245178223,9.8281402588,1.3238830566,3.4995651245,3.4351501465,6.5966796875,4.6212158203,10.0840148926,2.5848693848,7.6001281738,6.2143249512,14.8305969238,7.6389770508,22.8629150391.4727172852,2.6652069092,1.4923095703,5.3533630371,2.3497314453,7.9987792969.7311706543,2.2559204102.6825256348,4.6216125488,1.4243164062,6.8952484131.620513916,1.9019470215.0307312012,4.0172119141.9594726562,6.1138153076.7814025879,1.7639923096-.3561096191,4.1825866699,1.130065918,6.030380249.0813598633.1011810303.0165710449.3250274658.0096740723.4913787842-.2921447754,7.0565795898,1.5958557129,13.9947509766,1.0768127441,21.0860595703-.1538696289,2.1024627686-1.4418029785,3.840423584-1.1754455566,6.0904083252.2420959473,2.0453033447.7929992676,4.3981933594-.3952941895,6.2674407959-1.1932067871,1.8768768311-.2425537109,3.9505004883-1.2866516113,6.0004730225-1.0484008789,2.0584106445-.650604248,4.9545440674-1.0494995117,7.4989929199-.9269104004,5.9126739502-2.6252746582,11.5931396484-4.395324707,17.2266235352-2.6770935059,8.5202331543-5.9985351562,16.8301696777-9.8092041016,24.9277038574-1.3399047852,2.8472290039-3.0331726074,5.435546875-4.8174743652,8.0386352539-1.650604248,2.4080810547-2.315826416,5.5090026855-4.737487793,7.4928588867-.4675598145.3829956055-.200378418,1.1127929688-.4411315918,1.2935180664-1.5389709473,1.1553955078-.4212646484,3.6060180664-2.3681640625,4.5644836426-1.702545166.8381958008-1.9974060059,2.8648681641-3.0635986328,4.2570495605-1.0633239746,1.3884277344-2.3260498047,2.6570739746-3.2675170898,4.1098022461-3.6026306152,5.5591125488-8.7751159668,9.8288574219-12.412689209,15.3436279297-2.5144348145.6469116211-3.250793457,3.3390808105-5.3978881836,4.601776123-2.2244262695,1.3082275391-3.585144043,4.0629272461-5.791595459,5.429107666-3.3702697754,2.086730957-6.0472412109,5.032409668-9.6068115234,6.9043579102-3.4590148926,1.8190002441-6.4901123047,4.4383544922-9.7757873535,6.6052246094-2.0742797852,1.3679504395-4.1436157227,2.9236755371-6.4488830566,3.7100219727-2.2620544434.7716064453-3.449432373,3.5337524414-6.219329834,3.1059875488-4.0246582031,3.690826416-9.5402526855,4.4110107422-14.049118042,7.0797424316-1.8533325195,1.0969848633-3.7348022461,1.4608154297-5.6641235352,2.0843505859-2.4440002441.7898864746-5.1680908203,1.1630554199-7.9029388428,3.9014282227Z"/>
  <path class="cls-1" d="M200,20.3318328857c3.7820739746-1.1902217865,7.0592651367.2561969757,10.3181915283.8474941254,1.3159179688.2387599945,2.7288360596,1.0263271332,4.1079406738.7689857483,2.6945037842-.5027923584,4.9858398438,1.1597747803,7.5951843262,1.1203193665,1.1497802734-.0173854828,2.0168457031.9422130585,1.9833679199,2.3298797607-.0240936279.9992599487-.0046844482,1.9995670319-.0046844482,2.9994068146v88.9856948853c-1.9778900146,15.3237533569-.7526245117,30.7184066772-.9544677734,46.0789108276-.2057952881,15.6614532471-.0455322266,31.3276977539-.0455322266,46.9918518066v93.4849853516c0,15.4974975586-.0021057129,30.9950256348.0028381348,46.4925231934.000579834,1.809173584.2657318115,3.6590270996-1.7024841309,4.8198547363-.5542907715.3268432617-.9462127686.884979248-1.6957550049.7496948242-3.6203460693-.6533203125-6.9870758057,1.6083374023-10.5772399902.9623413086-1.4619903564-.2630615234-2.2129516602,1.2305908203-3.5950622559,1.0645141602-1.1498718262-.1381225586-2.3310546875.0094909668-3.4957122803-.0364990234-2.1684417725-.0856628418-2.8285369873-.763092041-2.9330291748-2.93359375-.0240020752-.4987487793-.0035552979-.9996643066-.0035552979-1.4995727539v-109.9823303223c1.9868774414-12.315322876.744354248-24.7193756104.9541320801-37.0805358887.2092132568-12.3278808594.0458679199-24.6620788574.0458679199-36.9935150146V20.3318328857Z"/>
  <path class="cls-1" d="M182,20v215.1797027588c-1.8384094238,13.3176269531-.8052215576,26.7086334229-.9640350342,40.0660247803-.1623840332,13.6579284668-.0359649658,27.3192749023-.0359649658,40.9791259766,0,13.4932861328.0009765625,26.986541748-.0059814453,40.4798278809-.0001678467.313293457-.0896759033.6265563965-.2065429688,1.391998291-3.5805206299-.5919189453-7.3268280029.9248657227-10.8645935059-1.0966796875-3.1363372803.6593933105-6.0285949707-.8665466309-9.080078125-1.01953125-2.1548309326-.108001709-2.7591094971-.8240356445-2.8367919922-3.015045166-.0354003906-.998260498-.0060119629-1.9987792969-.0060119629-2.9982910156,0-66.1337890625.0079803467-132.2675628662-.0119018555-198.4013366699-.0020751953-6.8790740967,1.4558410645-13.6500701904,1.0924530029-20.5795440674-.3658905029-6.9773254395-.0805511475-13.9887924194-.0805511475-20.9853057861V26.0428199768c0-.4997501373.0119476318-.9998416901-.0022125244-1.4991893768-.0456085205-1.6086483002.9501190186-2.4975986481,2.3353271484-2.4974040985,4.0252075195.0005664825,7.8196258545-.978477478,11.6957244873-1.9213447571,2.6737060547-.6503925323,5.6334533691-.1248817444,8.9711608887-.1248817444Z"/>
  <path class="cls-1" d="M137,371c-3.6660003662.1088562012-7.1766204834-.3001708984-10-3,3.7019348145-.2286682129,7.242477417.0806274414,10,3Z"/>
  <path class="cls-1" d="M123,11c2.2436523438-2.3587265015,5.1759033203-1.9630308151,8-2-4.4854812622,2.7233066559-5.4846954346,3.1611375809-7.2422714233,2.9840650558-.4990768433-.0502824783-.870880127-.3745994568-.7577285767-.9840650558Z"/>
  <path class="cls-1" d="M264,15c2.8056640625-.1020994186,5.4878540039.0838737488,7,3-2.7938232422.0744476318-5.7446594238.5153007507-7-3Z"/>
  <path class="cls-1" d="M259,13c1.8515625.2044401169,4.2060546875-.8484888077,5,2-.5904846191.0904827118-1.1848754883.1614780426-1.7700195312.2786388397-.359954834.0720729828-.982635498.7589321136-.9049377441.4771881104.6069946289-2.2013282776-2.5402832031-1.0631742477-2.3250427246-2.7558269501Z"/>
  <path class="cls-1" d="M262,364c-.5601196289,2.213104248-2.2932739258,2.0801086426-4,2-.4864501953.0296325684-1.0753479004-.1406555176-.7862548828-.6630859375,1.1094970703-2.0050048828,3.095703125-1.2051696777,4.7862548828-1.3369140625Z"/>
  <path class="cls-1" d="M293,30c1.551574707-.1607093811,2.6081848145.4210624695,3,2-.9868164062,0-1.9756164551-.0381126404-2.9596557617.0141601562-.5997314453.0318603516-.9573669434-.2438774109-1.0185546875-.7502937317-.0807800293-.6685180664.0154724121-1.3386573792.9782104492-1.2638664246Z"/>
  <path class="cls-1" d="M284,25c.984161377.3808116913,2.5311889648-.9268665314,3,1-.0602111816,1.2270088196-.9561767578,1.2461013794-1.6109924316.8013362885-.583190918-.3961238861-1.4308166504-.8234786987-1.3890075684-1.8013362885Z"/>
  <path class="cls-1" d="M307,40.0000038147c1.0900878906.2432365417,1.7568054199.909866333,2,1.9999961853l-.3476257324.8476295471c-1.0706481934-.5960159302-1.9040222168-1.429309845-2.5-2.4999961853.2825317383-.1158752441.5650939941-.2317504883.8476257324-.3476295471Z"/>
  <path class="cls-1" d="M115,15c-.0254211426-.6920871735.3079147339-1.0254182816,1-1,.4864578247-.0296411514.9460754395.0532588959.7829666138.671631813-.0445098877.1687164307-.518737793.2670269012-.8095321655.3162317276-.316116333.0534896851-.6482696533.0121364594-.9734344482.0121364594Z"/>
  <path class="cls-1" d="M113,15h2c.0718688965.9384670258-.5705947876,1.0555648804-1.2416992188.9805660248-.4996109009-.0558300018-.8714523315-.371099472-.7583007812-.9805660248Z"/>
  <path class="cls-1" d="M271,18c.758026123.150642395,1.9146728516-.4959983826,2,1-.758026123-.150642395-1.9146728516.4959983826-2-1Z"/>
  <path class="cls-1" d="M293,348c-.0853271484,1.4960021973-1.241973877.8493652344-2,1,.0853271484-1.4960021973,1.241973877-.8493652344,2-1Z"/>
  <path class="cls-1" d="M264,364h-2c-.0718688965-.9384460449.5705871582-1.0555725098,1.2416992188-.9805603027.4996032715.0558166504.8714599609.37109375.7583007812.9805603027Z"/>
  <path class="cls-1" d="M291,349c.0254211426.6920776367-.3079223633,1.0254211426-1,1-.0254211426-.6920776367.3079223633-1.0254211426,1-1Z"/>
</svg>